<?xml version="1.0" encoding="UTF-8"?>
<!DOCTYPE svg PUBLIC "-//W3C//DTD SVG 1.1//EN" "http://www.w3.org/Graphics/SVG/1.1/DTD/svg11.dtd">
<!-- Creator: CorelDRAW 2021 (64-Bit) -->
<svg xmlns="http://www.w3.org/2000/svg" xml:space="preserve" width="300px" height="300px" version="1.1" style="shape-rendering:geometricPrecision; text-rendering:geometricPrecision; image-rendering:optimizeQuality; fill-rule:evenodd; clip-rule:evenodd"
viewBox="0 0 701.32 701.32"
 xmlns:xlink="http://www.w3.org/1999/xlink"
 xmlns:xodm="http://www.corel.com/coreldraw/odm/2003">
 <defs>
  <style type="text/css">
   <![CDATA[
    .fil0 {fill:#30A9FF}
    .fil1 {fill:white;fill-rule:nonzero}
   ]]>
  </style>
 </defs>
 <g id="Layer_x0020_1">
  <metadata id="CorelCorpID_0Corel-Layer"/>
  <circle class="fil0" cx="350.66" cy="350.66" r="350.66"/>
  <path class="fil1" d="M462.6 558.71c-176.85,-0.25 -320.17,-143.57 -320.41,-320.39 -0.01,-52.87 42.86,-95.74 95.7,-95.74 0.2,0 0.43,0 0.63,0 5.16,0 10.33,0.5 15.39,1.46 5.1,0.74 10.15,2.02 14.98,3.74 6.95,2.44 12.11,8.39 13.53,15.61l28.5 124.84c0.35,1.52 0.52,3.06 0.52,4.61 0,5.43 -2.12,10.65 -5.92,14.54 -2.7,2.92 -2.91,3.13 -28.5,16.43 20.46,44.92 56.48,81.07 101.29,101.73 13.52,-25.79 13.73,-26.01 16.65,-28.71 3.9,-3.81 9.12,-5.93 14.55,-5.93 1.55,0 3.1,0.18 4.6,0.52l124.84 28.5c6.99,1.62 12.66,6.74 14.98,13.53 1.76,4.93 3.08,10.04 3.95,15.19 0.82,5.17 1.24,10.44 1.24,15.69 0,0.03 0,0.08 0,0.12 -0.76,52.28 -43.39,94.26 -95.68,94.26 -0.29,0 -0.57,0 -0.84,0z"/>
 </g>
</svg>
