<?xml version="1.0" encoding="UTF-8"?>
<!DOCTYPE svg PUBLIC "-//W3C//DTD SVG 1.1//EN" "http://www.w3.org/Graphics/SVG/1.1/DTD/svg11.dtd">
<!-- Creator: CorelDRAW 2021 (64-Bit) -->
<svg xmlns="http://www.w3.org/2000/svg" xml:space="preserve" width="300px" height="300px" version="1.1" style="shape-rendering:geometricPrecision; text-rendering:geometricPrecision; image-rendering:optimizeQuality; fill-rule:evenodd; clip-rule:evenodd"
viewBox="0 0 129.77 129.77"
 xmlns:xlink="http://www.w3.org/1999/xlink"
 xmlns:xodm="http://www.corel.com/coreldraw/odm/2003">
 <defs>
  <style type="text/css">
   <![CDATA[
    .fil0 {fill:#30A9FF}
    .fil1 {fill:white;fill-rule:nonzero}
   ]]>
  </style>
 </defs>
 <g id="Layer_x0020_1">
  <metadata id="CorelCorpID_0Corel-Layer"/>
  <circle class="fil0" cx="64.89" cy="64.89" r="64.89"/>
  <path class="fil1" d="M96.53 40.15c-0.75,-0.08 -1.52,-0.12 -2.29,-0.12l-55.26 -0.01c-0.58,0 -1.16,0.05 -1.73,0.1l-3.16 0c-12.8,0 -23.28,10.47 -23.28,23.27l0 3.08c0,12.8 10.48,23.28 23.28,23.28l3.08 0c6.38,0 10.32,-2.61 14.54,-6.82l26.35 0c4.22,4.2 8.15,6.82 14.54,6.82l3.08 0c12.8,0 23.28,-10.48 23.28,-23.28l0 -3.08c-0.01,-12.51 -10.02,-22.77 -22.43,-23.24l0 0zm-57.85 25.4l-3.04 0 0 3.05c0,1.38 -1.13,2.51 -2.52,2.51 -1.38,0 -2.51,-1.13 -2.51,-2.51l0 -3.05 -3.04 0c-1.39,0 -2.51,-1.13 -2.51,-2.51 0,-1.38 1.12,-2.51 2.51,-2.51l3.04 0 0 -3.05c0,-1.38 1.13,-2.51 2.51,-2.51 1.39,0 2.52,1.13 2.52,2.51l0 3.05 3.04 0c1.38,0 2.51,1.13 2.51,2.51 0,1.37 -1.13,2.51 -2.51,2.51zm22.51 9.92l-4.4 0c-1.19,0 -2.17,-0.98 -2.17,-2.17 0,-1.2 0.98,-2.18 2.17,-2.18l4.4 0c1.2,0 2.17,0.98 2.17,2.17 0,1.2 -0.97,2.18 -2.17,2.18l0 0zm11.76 0l-4.39 0c-1.2,0 -2.18,-0.98 -2.18,-2.17 0,-1.2 0.98,-2.18 2.18,-2.18l4.39 0c1.2,0 2.18,0.98 2.18,2.17 0.01,1.2 -0.98,2.18 -2.18,2.18l0 0zm20.26 -11.66l-0.8 0c-1.27,0 -2.33,-1.05 -2.33,-2.34 0,-1.29 1.04,-2.34 2.33,-2.34l0.8 0c1.27,0 2.33,1.05 2.33,2.34 0,1.29 -1.04,2.34 -2.33,2.34zm8.11 4.23c0,1.28 -1.04,2.34 -2.34,2.34 -1.29,0 -2.33,-1.05 -2.33,-2.34l0 -0.79c0,-1.28 1.04,-2.34 2.33,-2.34 1.3,0 2.34,1.05 2.34,2.34l0 0.79zm0 -12.36c0,1.28 -1.04,2.34 -2.34,2.34 -1.29,0 -2.33,-1.05 -2.33,-2.34l0 -0.79c0,-1.28 1.04,-2.34 2.33,-2.34 1.3,0 2.34,1.05 2.34,2.34l0 0.79 0 0zm4.24 8.13l-0.79 0c-1.28,0 -2.33,-1.05 -2.33,-2.34 0,-1.29 1.04,-2.34 2.33,-2.34l0.79 0c1.28,0 2.34,1.05 2.34,2.34 0,1.29 -1.04,2.34 -2.34,2.34z"/>
 </g>
</svg>
