<?xml version="1.0" encoding="UTF-8"?>
<!DOCTYPE svg PUBLIC "-//W3C//DTD SVG 1.1//EN" "http://www.w3.org/Graphics/SVG/1.1/DTD/svg11.dtd">
<!-- Creator: CorelDRAW 2021 (64-Bit) -->
<svg xmlns="http://www.w3.org/2000/svg" xml:space="preserve" width="300px" height="300px" version="1.1" style="shape-rendering:geometricPrecision; text-rendering:geometricPrecision; image-rendering:optimizeQuality; fill-rule:evenodd; clip-rule:evenodd"
viewBox="0 0 59.39 59.39"
 xmlns:xlink="http://www.w3.org/1999/xlink"
 xmlns:xodm="http://www.corel.com/coreldraw/odm/2003">
 <defs>
  <style type="text/css">
   <![CDATA[
    .fil0 {fill:#30A9FF}
    .fil1 {fill:white}
   ]]>
  </style>
 </defs>
 <g id="Layer_x0020_1">
  <metadata id="CorelCorpID_0Corel-Layer"/>
  <circle class="fil0" cx="29.7" cy="29.7" r="29.7"/>
  <g id="_1906095620256">
   <path class="fil1" d="M27.12 18.29l0 -5.01c0,-0.58 0.48,-1.05 1.05,-1.05l1.52 0c0.57,0 1.04,0.47 1.04,1.05l0 2.37c5.5,-0.11 14.43,-0.11 16.01,1.07 1.18,0.87 1.74,11.74 -0.22,13.52 -0.84,0.76 -2.39,0.6 -3.9,0.66l0 0c-0.09,0 -0.18,0.01 -0.28,0.01 1.55,0.45 2.63,1.15 3.22,2.08 0.58,0.94 0.88,2.57 0.88,4.89l0 6.12 1.73 0 0 3.14 -5.49 0c0,-1.54 -0.1,-4.19 -0.94,-5.49 -0.96,-1.47 -3.13,-1.51 -4.71,-1.57 -1.27,-0.04 -2.54,0 -3.81,0 -0.65,0 -1.3,0 -1.95,0l0 3.92 1.77 0 0 3.14 -5.92 0 0 -3.14 0 0c0,-1.08 0.02,-7.14 0.02,-13.04l0 0c0,-4.53 0,-8.96 -0.01,-10.96l0 -1.56c0,-0.05 -0.01,-0.1 -0.01,-0.15zm8.76 1.25c-0.25,0.4 -0.76,0.67 -1.35,0.67 -0.63,0 -1.17,-0.31 -1.39,-0.75 -0.19,0.07 -0.39,0.16 -0.59,0.26 -0.19,0.09 -0.42,0.01 -0.51,-0.18 -0.1,-0.19 -0.02,-0.42 0.17,-0.51 0.84,-0.41 1.55,-0.59 2.26,-0.58 0.71,0.01 1.4,0.22 2.19,0.6 0.19,0.09 0.27,0.32 0.18,0.51 -0.1,0.19 -0.32,0.27 -0.52,0.18 -0.15,-0.07 -0.3,-0.14 -0.44,-0.2z"/>
   <path class="fil1" d="M25.7 23.08l-3.36 0 0 -2.48c0,-1.16 -0.11,-1.9 -0.31,-2.21 -0.21,-0.32 -0.55,-0.48 -1.03,-0.48 -0.53,0 -0.93,0.21 -1.2,0.64 -0.27,0.43 -0.4,1.07 -0.4,1.94 0,1.12 0.16,1.96 0.46,2.52 0.3,0.56 1.12,1.25 2.48,2.05 1.27,0.76 2.39,1.47 3.36,2.14l-0.01 3.9 0.01 0c-0.01,5.89 -0.02,11.94 -0.02,13.02l0 0 0 2.45c-1.26,0.39 -2.65,0.59 -4.19,0.59 -2.34,0 -4.33,-0.45 -5.99,-1.33 -1.66,-0.88 -2.73,-2.01 -3.25,-3.37 -0.51,-1.37 -0.77,-3.31 -0.77,-5.82l0 -2.2 8.13 0 0 4.08c0,1.26 0.12,2.06 0.34,2.42 0.23,0.36 0.64,0.54 1.22,0.54 0.58,0 1.01,-0.23 1.3,-0.69 0.28,-0.45 0.42,-1.13 0.42,-2.02 0,-1.97 -0.27,-3.26 -0.81,-3.86 -0.56,-0.61 -1.92,-1.63 -4.09,-3.05 -2.17,-1.44 -3.61,-2.48 -4.32,-3.13 -0.7,-0.65 -1.29,-1.55 -1.75,-2.69 -0.46,-1.15 -0.69,-2.61 -0.69,-4.39 0,-2.57 0.32,-4.44 0.98,-5.63 0.66,-1.19 1.72,-2.11 3.19,-2.78 1.47,-0.68 3.23,-1.01 5.31,-1.01 1.93,0 3.61,0.27 5.05,0.79 -0.05,0.13 -0.08,0.27 -0.08,0.42l0 5c0,0.05 0,0.1 0.01,0.15l0 1.55c0,0.71 0,1.73 0.01,2.94z"/>
  </g>
 </g>
</svg>
